<svg id="visual" viewBox="0 0 900 600" width="900" height="600" xmlns="http://www.w3.org/2000/svg" xmlns:xlink="http://www.w3.org/1999/xlink" version="1.1">
<path d="M0 410L37.5 417.8C75 425.7 150 441.3 225 448.8C300 456.3 375 455.7 450 448.7C525 441.7 600 428.3 675 424C750 419.7 825 424.3 862.5 426.7L900 429L900 601L862.5 601C825 601 750 601 675 601C600 601 525 601 450 601C375 601 300 601 225 601C150 601 75 601 37.5 601L0 601Z" fill="#a5c2e3">
</path>
<path d="M0 497L37.5 494.5C75 492 150 487 225 485.8C300 484.7 375 487.3 450 490.8C525 494.3 600 498.7 675 504.3C750 510 825 517 862.5 520.5L900 524L900 601L862.5 601C825 601 750 601 675 601C600 601 525 601 450 601C375 601 300 601 225 601C150 601 75 601 37.5 601L0 601Z" fill="#50749d"></path>
</svg>